<svg width="20" height="20" viewBox="0 0 20 20" fill="none" xmlns="http://www.w3.org/2000/svg">
<path fill-rule="evenodd" clip-rule="evenodd" d="M9.99992 2.08329C9.99992 1.85317 9.81337 1.66663 9.58325 1.66663H6.66659C4.82564 1.66663 3.33325 3.15901 3.33325 4.99996V15C3.33325 16.8409 4.82564 18.3333 6.66659 18.3333H13.3333C15.1742 18.3333 16.6666 16.8409 16.6666 15V8.74996C16.6666 8.51984 16.48 8.33329 16.2499 8.33329H14.1666C11.8654 8.33329 9.99992 6.46781 9.99992 4.16663V2.08329ZM16.0161 6.66663C16.2932 6.66663 16.4923 6.39907 16.3592 6.15604C16.2462 5.9497 16.1037 5.75856 15.9344 5.58922L12.744 2.39886C12.5746 2.22951 12.3835 2.08697 12.1772 1.97396C11.9341 1.84086 11.6666 2.04 11.6666 2.31708V4.16663C11.6666 5.54734 12.7859 6.66663 14.1666 6.66663H16.0161ZM9.99992 9.16663C10.4602 9.16663 10.8333 9.53972 10.8333 9.99996V11.6666H12.4999C12.9602 11.6666 13.3333 12.0397 13.3333 12.5C13.3333 12.9602 12.9602 13.3333 12.4999 13.3333H10.8333V15C10.8333 15.4602 10.4602 15.8333 9.99992 15.8333C9.53968 15.8333 9.16658 15.4602 9.16658 15V13.3333H7.49992C7.03968 13.3333 6.66659 12.9602 6.66659 12.5C6.66659 12.0397 7.03968 11.6666 7.49992 11.6666H9.16658V9.99996C9.16658 9.53972 9.53968 9.16663 9.99992 9.16663Z" fill="white" fill-opacity="0.25"/>
</svg>
