<svg width="20" height="20" viewBox="0 0 20 20" fill="none" xmlns="http://www.w3.org/2000/svg">
<path fill-rule="evenodd" clip-rule="evenodd" d="M6.66675 1.66663C7.12699 1.66663 7.50008 2.03972 7.50008 2.49996H12.5001C12.5001 2.03972 12.8732 1.66663 13.3334 1.66663C13.7937 1.66663 14.1667 2.03972 14.1667 2.49996C16.4679 2.49996 18.3334 4.36544 18.3334 6.66663V14.1666C18.3334 16.4678 16.4679 18.3333 14.1667 18.3333H5.83341C3.53223 18.3333 1.66675 16.4678 1.66675 14.1666V6.66663C1.66675 4.36544 3.53223 2.49996 5.83341 2.49996C5.83341 2.03972 6.20651 1.66663 6.66675 1.66663ZM5.00008 8.33329C5.00008 7.87306 5.37318 7.49996 5.83341 7.49996H14.1667C14.627 7.49996 15.0001 7.87306 15.0001 8.33329C15.0001 8.79353 14.627 9.16663 14.1667 9.16663H5.83341C5.37318 9.16663 5.00008 8.79353 5.00008 8.33329ZM12.5001 14.1666C12.5001 13.7064 12.8732 13.3333 13.3334 13.3333H14.1667C14.627 13.3333 15.0001 13.7064 15.0001 14.1666C15.0001 14.6269 14.627 15 14.1667 15H13.3334C12.8732 15 12.5001 14.6269 12.5001 14.1666Z" fill="white"/>
</svg>
